<?xml version="1.0" encoding="UTF-8" standalone="no"?><!-- Generator: Gravit.io --><svg xmlns="http://www.w3.org/2000/svg" xmlns:xlink="http://www.w3.org/1999/xlink" style="isolation:isolate" viewBox="936.5 441.08 281.88 67.392" width="281.88pt" height="67.392pt"><path d=" M 1202.54 493.208 C 1210.892 493.208 1218.38 486.224 1218.38 474.272 C 1218.38 463.472 1213.268 456.488 1203.836 456.488 C 1199.732 456.488 1195.268 458.576 1192.1 461.816 L 1191.884 461.816 L 1192.1 455.048 L 1192.1 441.08 L 1186.196 441.08 L 1186.196 492.344 L 1190.948 492.344 L 1191.452 488.456 L 1191.668 488.456 C 1194.98 491.408 1199.156 493.208 1202.54 493.208 Z  M 1201.604 488.24 C 1199.084 488.24 1195.412 487.088 1192.1 484.136 L 1192.1 466.712 C 1195.7 463.112 1199.3 461.456 1202.396 461.456 C 1209.38 461.456 1212.26 466.64 1212.26 474.344 C 1212.26 482.984 1207.724 488.24 1201.604 488.24 Z " fill="rgb(26,32,44)"/><path d=" M 1149.26 484.352 L 1157.9 472.904 L 1166.54 484.352 L 1169.564 482.192 L 1161.788 470.312 L 1173.452 465.272 L 1172.3 461.96 L 1160.276 465.92 L 1159.628 452.312 L 1156.172 452.312 L 1155.524 465.92 L 1143.5 461.96 L 1142.348 465.272 L 1154.012 470.312 L 1146.236 482.192 L 1149.26 484.352 Z " fill="rgb(49,151,149)"/><path d=" M 1122.404 493.208 C 1126.22 493.208 1128.524 492.488 1131.764 491.12 L 1130.252 486.728 C 1127.876 487.808 1125.716 488.312 1123.7 488.312 C 1119.524 488.312 1116.788 486.152 1116.788 481.04 L 1116.788 441.08 L 1098.428 441.08 L 1098.428 445.904 L 1110.884 445.904 L 1110.884 480.608 C 1110.884 488.888 1114.988 493.208 1122.404 493.208 Z " fill="rgb(26,32,44)"/><path d=" M 1056.956 503.288 L 1076.9 503.288 L 1076.9 441.368 L 1056.956 441.368 L 1056.956 444.752 L 1072.148 444.752 L 1072.148 499.904 L 1056.956 499.904 L 1056.956 503.288 Z " fill="rgb(49,151,149)"/><path d=" M 987.764 493.208 C 993.884 493.208 998.924 490.76 1001.876 487.736 L 1001.876 467.864 L 986.9 467.864 L 986.9 472.832 L 996.332 472.832 L 996.332 485.144 C 994.532 486.872 991.436 487.952 988.124 487.952 C 978.836 487.952 973.58 480.464 973.58 468.584 C 973.58 456.848 979.412 449.504 988.268 449.504 C 992.804 449.504 995.612 451.376 997.916 453.824 L 1001.3 450.008 C 998.636 447.2 994.532 444.248 988.268 444.248 C 976.028 444.248 967.316 453.464 967.316 468.728 C 967.316 484.136 975.884 493.208 987.764 493.208 Z  M 1028.012 508.472 C 1039.892 508.472 1047.452 502.784 1047.452 496.232 C 1047.452 490.328 1043.132 488.024 1034.132 488.024 L 1026.284 488.024 C 1021.676 488.024 1019.012 486.728 1019.012 483.992 C 1019.012 482.336 1020.02 481.04 1021.748 479.96 C 1023.692 480.824 1025.852 481.256 1027.652 481.256 C 1035.212 481.256 1041.188 476.72 1041.188 469.232 C 1041.188 466.424 1039.82 463.832 1038.236 462.176 L 1047.308 462.176 L 1047.308 457.352 L 1032.836 457.352 C 1031.324 456.776 1029.668 456.488 1027.652 456.488 C 1020.236 456.488 1013.9 461.384 1013.9 469.016 C 1013.9 473.192 1015.844 476.288 1018.22 478.088 L 1018.22 478.376 C 1015.556 480.176 1014.044 482.696 1014.044 484.928 C 1014.044 487.88 1015.772 489.68 1017.644 490.688 L 1017.644 490.976 C 1013.9 493.136 1011.884 495.944 1011.884 498.752 C 1011.884 504.944 1017.788 508.472 1028.012 508.472 Z  M 1027.652 477.296 C 1023.26 477.296 1019.588 474.056 1019.588 469.016 C 1019.588 464.12 1023.26 460.808 1027.652 460.808 C 1032.116 460.808 1035.716 464.12 1035.716 469.016 C 1035.716 474.056 1032.116 477.296 1027.652 477.296 Z  M 1028.444 504.152 C 1020.956 504.152 1016.996 501.848 1016.996 498.176 C 1016.996 496.16 1018.148 494.144 1021.46 492.344 C 1022.972 492.776 1024.772 492.92 1026.788 492.92 L 1033.628 492.92 C 1038.956 492.92 1041.62 493.856 1041.62 497.168 C 1041.62 500.768 1036.58 504.152 1028.444 504.152 Z " fill="rgb(26,32,44)"/><path d=" M 936.5 503.288 L 956.444 503.288 L 956.444 499.904 L 941.252 499.904 L 941.252 444.752 L 956.444 444.752 L 956.444 441.368 L 936.5 441.368 L 936.5 503.288 Z " fill="rgb(49,151,149)"/></svg>