<?xml version="1.0" encoding="UTF-8" standalone="no"?><!-- Generator: Gravit.io --><svg xmlns="http://www.w3.org/2000/svg" xmlns:xlink="http://www.w3.org/1999/xlink" style="isolation:isolate" viewBox="0 0 600 425.307" width="600pt" height="425.307pt"><defs><clipPath id="_clipPath_l2oLbRSEyPHYy7csbfiOPHtHWt0IaiM8"><rect x="0" y="0" width="600" height="425.307"/></clipPath></defs><g clip-path="url(#_clipPath_l2oLbRSEyPHYy7csbfiOPHtHWt0IaiM8)"><path d=" M 344.905 0.517 C 333.276 2.404 324.976 8.8 321.694 18.341 C 319.021 25.994 320.569 40.743 325.398 54.827 C 326.664 58.391 328.728 64.402 330.041 68.142 C 332.619 75.621 333.604 79.605 334.354 85.441 C 336.465 102.671 331.541 116.615 320.616 124.304 C 312.316 130.14 301.953 132.481 287.417 131.713 C 273.913 131.014 264.207 127.938 255.532 121.613 C 246.529 115.007 242.262 108.926 233.212 89.495 C 231.008 84.777 228.242 79.255 227.023 77.228 C 220.13 65.696 211.267 60.453 198.748 60.453 C 193.637 60.453 191.011 61.117 187.916 63.249 C 183.18 66.499 181.211 70.728 181.68 76.704 C 182.195 83.309 184.962 88.866 190.542 94.353 C 194.434 98.162 198.795 101.273 209.767 107.948 C 226.694 118.293 231.149 123.115 231.196 131.223 C 231.196 137.234 229.367 140.834 224.303 144.539 C 219.567 148.068 211.877 150.62 201.514 152.192 C 194.059 153.276 185.853 153.94 171.176 154.639 C 143.511 155.932 134.883 157.33 130.616 161.244 C 129.303 162.467 129.209 162.782 129.209 165.403 C 129.209 168.932 130.241 170.68 134.086 173.755 C 137.462 176.481 141.776 178.928 152.889 184.345 C 164.283 189.901 168.644 192.348 173.052 195.668 C 177.178 198.778 179.851 201.644 181.445 204.789 C 182.571 206.886 182.664 207.48 182.617 212.303 C 182.571 216.916 182.43 217.93 181.304 220.621 C 175.537 234.949 159.969 241.904 125.927 245.469 C 123.114 245.783 115.611 246.412 109.281 246.902 C 102.951 247.391 95.261 248.055 92.166 248.335 C 70.643 250.327 60.281 253.577 55.967 259.693 C 54.748 261.405 54.654 261.894 54.654 265.249 C 54.654 268.395 54.795 269.129 55.732 270.387 C 57.983 273.567 61.64 275.419 68.346 276.852 C 71.487 277.516 73.129 277.656 79.506 277.621 C 89.962 277.621 93.807 276.817 114.392 270.282 C 128.787 265.669 136.665 263.502 143.511 262.139 C 153.358 260.217 156.968 259.867 167.191 259.867 C 175.349 259.867 177.131 259.937 180.742 260.636 C 192.652 262.873 200.67 267.311 205.219 274.161 C 208.032 278.495 208.829 281.396 208.829 287.616 C 208.782 296.109 206.86 302.644 202.171 309.808 C 194.481 321.586 184.821 328.645 154.108 344.966 C 130.569 357.443 119.644 365.586 113.079 375.511 C 108.203 382.885 106.233 389.735 106.608 398.052 C 106.749 402.281 107.03 403.574 108.062 405.986 C 110.969 412.626 117.721 417.309 127.193 419.231 C 130.804 419.965 138.822 420.244 143.605 419.755 C 163.439 417.763 177.084 409.376 188.291 392.286 C 193.215 384.737 195.887 379.46 204.656 359.609 C 212.627 341.576 216.941 332.909 221.349 326.409 C 235.135 305.859 252.296 296.563 277.852 295.759 C 288.777 295.41 299.421 296.808 307.533 299.673 C 322.773 305.055 332.057 314.806 337.637 331.127 C 340.028 338.116 341.482 345.036 343.732 360.308 C 346.452 378.621 348.281 385.576 351.798 390.888 C 354.517 395.012 357.846 397.493 362.395 398.786 C 364.786 399.45 365.724 399.52 371.163 399.345 C 375.993 399.206 378.009 398.996 381.01 398.297 C 390.951 395.886 397.563 390.678 399.297 383.863 C 400.188 380.543 400.188 378.936 399.297 375.895 C 398.266 372.296 395.921 369.15 389.263 362.44 C 385.934 359.085 382.136 354.996 380.823 353.389 C 374.164 345.071 371.632 335.425 372.711 322.669 C 373.649 311.626 375.712 304.916 380.307 297.926 C 384.715 291.146 390.201 286.917 398.36 283.947 C 404.69 281.64 409.004 280.941 418.757 280.731 C 437.935 280.277 462.084 282.444 478.026 286.044 C 496.97 290.342 507.708 294.92 530.825 308.62 C 547.705 318.615 558.302 321.865 573.917 321.865 C 577.996 321.865 580.716 321.691 582.451 321.306 C 590.844 319.454 596.659 314.806 599.144 307.886 C 600.316 304.741 600.269 297.087 599.097 293.942 C 595.908 285.275 587.14 279.578 571.15 275.804 C 564.211 274.161 556.99 273.078 536.217 270.492 C 508.13 266.997 496.36 264.76 484.919 260.671 C 472.306 256.198 462.506 249.383 457.066 241.31 C 447.594 227.191 447.36 204.999 456.551 190.181 C 460.536 183.715 468.132 177.04 476.713 172.427 C 481.637 169.771 493.781 165.228 501.049 163.236 C 503.91 162.467 512.397 160.44 519.946 158.693 C 538.468 154.394 544.142 152.647 549.534 149.641 C 552.722 147.859 554.457 146.286 556.052 143.735 C 557.224 141.883 557.318 141.358 557.271 137.689 C 557.224 132.901 556.427 130.315 553.66 126.331 C 547.987 118.223 536.217 113.889 521.212 114.343 C 515.116 114.553 511.037 115.567 505.457 118.327 C 500.487 120.739 491.859 127.379 483.184 135.417 C 473.9 143.979 469.586 147.614 465.366 150.34 C 455.144 156.91 449.564 157.959 430.245 156.875 C 394.655 154.918 376.368 146.041 367.647 126.54 C 364.13 118.747 362.489 109.381 362.489 97.498 C 362.489 84.113 364.27 78.417 373.039 63.773 C 381.432 49.724 383.73 42.35 383.777 29.175 C 383.824 23.653 383.683 22.535 382.745 19.983 C 380.588 14.042 377.353 9.988 371.679 6.039 C 364.411 1.007 354.517 -1.055 344.905 0.517 L 344.905 0.517 Z  M 25.582 121.648 C 20.94 122.102 14.422 123.535 11.093 124.863 C 5.56 127.03 1.574 130.909 0.496 135.207 C -1.052 141.253 1.011 146.321 6.873 150.969 C 11.702 154.778 17.704 157.295 26.52 159.217 C 33.131 160.65 38.664 161.174 49.027 161.349 C 63.657 161.593 73.41 160.51 81.381 157.644 C 85.836 156.037 88.649 154.324 90.431 152.087 C 91.51 150.689 91.697 150.06 91.697 147.964 C 91.65 145.797 91.416 145.098 89.962 142.896 C 84.288 134.404 67.83 126.016 49.965 122.486 C 45.932 121.682 44.15 121.543 37.07 121.438 C 32.568 121.368 27.411 121.473 25.582 121.648 L 25.582 121.648 Z  M 477.37 371.702 C 467.523 372.995 460.818 375.79 455.378 380.858 C 450.549 385.331 448.579 389.805 448.579 396.13 C 448.626 399.695 448.814 400.743 449.845 403.12 C 451.533 406.964 454.018 409.97 457.91 412.87 C 461.755 415.771 465.788 417.623 471.04 418.916 C 474.322 419.72 475.541 419.86 480.887 419.86 C 486.232 419.86 487.451 419.72 490.734 418.916 C 495.938 417.623 500.018 415.771 503.863 412.905 C 507.708 410.04 510.193 406.999 511.928 403.12 C 512.96 400.743 513.194 399.695 513.194 396.13 C 513.194 393.16 512.96 391.272 512.397 389.665 C 509.255 381.138 500.252 374.497 488.999 372.4 C 485.81 371.806 479.433 371.422 477.37 371.702 Z " fill-rule="evenodd" fill="rgb(56,178,172)"/><defs><filter id="HpSW7SOR5nIVmQsp16ILdS9IVfbWxShX" x="-200%" y="-200%" width="400%" height="400%" filterUnits="objectBoundingBox" color-interpolation-filters="sRGB"><feGaussianBlur xmlns="http://www.w3.org/2000/svg" in="SourceGraphic" stdDeviation="4.293609062839028"/><feOffset xmlns="http://www.w3.org/2000/svg" dx="3" dy="3" result="pf_100_offsetBlur"/><feFlood xmlns="http://www.w3.org/2000/svg" flood-color="#8A295B" flood-opacity="0.65"/><feComposite xmlns="http://www.w3.org/2000/svg" in2="pf_100_offsetBlur" operator="in" result="pf_100_dropShadow"/><feBlend xmlns="http://www.w3.org/2000/svg" in="SourceGraphic" in2="pf_100_dropShadow" mode="normal"/></filter></defs><g filter="url(#HpSW7SOR5nIVmQsp16ILdS9IVfbWxShX)"><path d=" M 193.653 268.322 L 193.653 268.322 Q 194.93 269.223 199.539 272.129 L 199.539 272.129 L 199.539 272.129 Q 204.148 275.035 207.431 278.4 L 207.431 278.4 L 207.431 278.4 Q 210.714 281.765 211.697 285.435 L 211.697 285.435 L 211.697 285.435 Q 212.939 290.072 210.549 295.06 L 210.549 295.06 L 210.549 295.06 Q 207.697 301.415 201.515 303.072 L 201.515 303.072 L 201.515 303.072 Q 198.81 303.796 195.319 303.904 L 195.319 303.904 L 195.319 303.904 Q 191.828 304.011 190.81 304.077 L 190.81 304.077 L 190.81 304.077 Q 174.72 305.075 154.436 310.51 L 154.436 310.51 L 154.436 310.51 Q 138.788 314.703 121.622 320.959 L 121.622 320.959 L 121.622 320.959 Q 120.128 321.566 117.282 322.536 L 117.282 322.536 L 117.282 322.536 Q 114.436 323.506 112.118 324.127 L 112.118 324.127 L 112.118 324.127 Q 105.163 325.99 100.415 324.881 L 100.415 324.881 L 100.415 324.881 Q 95.666 323.773 94.061 317.784 L 94.061 317.784 L 94.061 317.784 Q 93.129 314.307 93.421 309.984 L 93.421 309.984 L 93.421 309.984 Q 93.712 305.661 94.915 299.334 L 94.915 299.334 L 95.567 294.812 L 95.567 294.812 Q 96.549 286.887 99.017 282.188 L 99.017 282.188 L 99.017 282.188 Q 101.485 277.49 107.86 275.781 L 107.86 275.781 L 107.86 275.781 Q 113.076 274.384 116.976 276.962 L 116.976 276.962 L 116.976 276.962 Q 120.877 279.541 122.223 284.563 L 122.223 284.563 L 122.223 284.563 Q 123.154 288.041 122.347 291.984 L 122.347 291.984 L 122.347 291.984 Q 134.311 287.95 149.766 283.809 L 149.766 283.809 L 149.766 283.809 Q 158.846 281.376 163.534 280.327 L 163.534 280.327 L 163.534 280.327 Q 139.756 262.68 128.009 253.611 L 128.009 253.611 L 110.175 240.376 L 110.175 240.376 Q 106.049 237.34 103.355 235.785 L 103.355 235.785 L 103.355 235.785 Q 93.981 229.393 88.732 224.484 L 88.732 224.484 L 88.732 224.484 Q 83.482 219.576 81.826 213.394 L 81.826 213.394 L 81.826 213.394 Q 80.273 207.598 83.469 202.911 L 83.469 202.911 L 83.469 202.911 Q 86.665 198.224 91.872 194.862 L 91.872 194.862 L 91.872 194.862 Q 97.079 191.5 105.307 187.432 L 105.307 187.432 L 112.955 183.519 L 112.955 183.519 Q 127.181 175.566 142.58 168.127 L 142.58 168.127 L 142.58 168.127 Q 143.881 167.571 147.731 165.712 L 147.731 165.712 L 147.731 165.712 Q 153.833 162.213 158.856 160.867 L 158.856 160.867 L 158.856 160.867 Q 165.231 159.159 169.447 161.756 L 169.447 161.756 L 169.447 161.756 Q 173.908 164.495 174.943 168.359 L 174.943 168.359 L 174.943 168.359 Q 175.927 172.029 174.688 176.295 L 174.688 176.295 L 174.688 176.295 Q 173.45 180.561 170.225 187.844 L 170.225 187.844 L 170.225 187.844 Q 166.293 196.351 165.628 200.049 L 165.628 200.049 L 165.628 200.049 Q 164.566 206.132 162.748 210.553 L 162.748 210.553 L 162.748 210.553 Q 160.93 214.974 157.453 215.906 L 157.453 215.906 L 157.453 215.906 Q 154.942 216.578 151.913 215.32 L 151.913 215.32 L 151.913 215.32 Q 148.639 213.919 147.655 210.249 L 147.655 210.249 L 147.655 210.249 Q 146.93 207.544 147.384 204.213 L 147.384 204.213 L 147.384 204.213 Q 147.837 200.882 148.42 198.035 L 148.42 198.035 L 148.42 198.035 Q 149.003 195.187 149.234 194.504 L 149.234 194.504 L 149.234 194.504 Q 139.847 198.882 121.875 209.081 L 121.875 209.081 L 121.875 209.081 Q 119.763 210.475 113.081 214.129 L 113.081 214.129 L 143.407 234.577 L 143.407 234.577 Q 182.216 260.413 193.653 268.322 L 193.653 268.322 Z  M 276.428 225.644 L 276.428 225.644 Q 277.358 217.527 275.547 210.766 L 275.547 210.766 L 275.547 210.766 Q 273.166 201.879 266.642 197.623 L 266.642 197.623 L 266.642 197.623 Q 256.726 190.755 239.057 195.903 L 239.057 195.903 L 239.057 195.903 Q 243.758 227.358 253.37 270.956 L 253.37 270.956 L 253.37 270.956 Q 262.828 262.21 268.959 250.318 L 268.959 250.318 L 268.959 250.318 Q 275.09 238.426 276.428 225.644 L 276.428 225.644 Z  M 236.951 180.317 L 236.951 180.317 Q 239.024 179.555 243.468 178.364 L 243.468 178.364 L 243.468 178.364 Q 267.036 172.049 281.733 180.534 L 281.733 180.534 L 281.733 180.534 Q 292.704 186.705 296.276 200.035 L 296.276 200.035 L 296.276 200.035 Q 298.139 206.989 297.636 217.477 L 297.636 217.477 L 297.636 217.477 Q 296.127 237.345 285.108 255.723 L 285.108 255.723 L 285.108 255.723 Q 274.089 274.101 256.983 286.76 L 256.983 286.76 L 256.983 286.76 Q 261.49 306.672 265.064 321.554 L 265.064 321.554 L 265.064 321.554 Q 268.637 336.436 271.084 346.34 L 271.084 346.34 L 271.084 346.34 Q 277.206 369.961 282.607 393.981 L 282.607 393.981 L 282.607 393.981 Q 283.501 398.09 278.727 402.682 L 278.727 402.682 L 278.727 402.682 Q 273.952 407.274 268.157 408.827 L 268.157 408.827 L 268.157 408.827 Q 261.395 410.639 260.05 405.616 L 260.05 405.616 L 256.102 390.109 L 256.102 390.109 Q 254.276 382.523 247.046 353.609 L 247.046 353.609 L 247.046 353.609 Q 239.816 324.695 234.298 299.464 L 234.298 299.464 L 234.298 299.464 Q 229.237 301.441 224.214 302.787 L 224.214 302.787 L 224.214 302.787 Q 220.544 303.77 218.398 303.103 L 218.398 303.103 L 218.398 303.103 Q 216.252 302.436 215.735 300.504 L 215.735 300.504 L 215.735 300.504 Q 214.803 297.026 218.501 291.895 L 218.501 291.895 L 218.501 291.895 Q 222.198 286.763 227.028 285.469 L 227.028 285.469 L 227.028 285.469 Q 229.733 284.744 230.84 284.24 L 230.84 284.24 L 230.84 284.24 Q 221.836 242.136 216.03 202.695 L 216.03 202.695 L 216.03 202.695 Q 214.47 202.284 214.005 200.546 L 214.005 200.546 L 214.005 200.546 Q 213.383 198.227 215.067 194.463 L 215.067 194.463 L 215.067 194.463 Q 214.756 193.304 214.418 190.496 L 214.418 190.496 L 214.418 190.496 Q 213.91 186.284 218.71 181.789 L 218.71 181.789 L 218.71 181.789 Q 223.51 177.293 228.726 175.895 L 228.726 175.895 L 228.726 175.895 Q 232.01 175.015 234.208 175.876 L 234.208 175.876 L 234.208 175.876 Q 236.406 176.736 236.744 179.545 L 236.744 179.545 L 236.951 180.317 Z  M 307.277 112.816 L 307.277 112.816 Q 306.679 109.042 311.673 104.494 L 311.673 104.494 L 311.673 104.494 Q 316.666 99.947 321.882 98.549 L 321.882 98.549 L 321.882 98.549 Q 328.064 96.893 329.113 101.581 L 329.113 101.581 L 329.113 101.581 Q 335.288 136.99 344.445 199.758 L 344.445 199.758 L 344.445 199.758 Q 350.938 242.535 352.899 255.262 L 352.899 255.262 L 352.899 255.262 Q 353.599 259.422 348.755 264.137 L 348.755 264.137 L 348.755 264.137 Q 343.91 268.851 338.501 270.3 L 338.501 270.3 L 338.501 270.3 Q 330.966 272.319 330.045 266.562 L 330.045 266.562 L 330.045 266.562 Q 318.999 198.294 307.277 112.816 L 307.277 112.816 Z  M 408.61 172.627 L 406.965 187.354 L 406.455 191.632 L 423.032 199.406 L 420.179 194.166 L 420.179 194.166 Q 417.377 189.12 408.61 172.627 L 408.61 172.627 Z  M 413.873 125.043 L 413.873 125.043 Q 421.081 141.125 429.868 157.303 L 429.868 157.303 L 429.868 157.303 Q 438.654 173.48 450.648 194.285 L 450.648 194.285 L 450.648 194.285 Q 461.944 214.034 465.546 220.523 L 465.546 220.523 L 465.546 220.523 Q 465.895 221.05 466.205 222.209 L 466.205 222.209 L 466.205 222.209 Q 467.447 226.846 463.137 231.624 L 463.137 231.624 L 463.137 231.624 Q 458.827 236.403 453.225 237.904 L 453.225 237.904 L 453.225 237.904 Q 448.588 239.146 445.404 237.308 L 445.404 237.308 L 445.404 237.308 Q 438.197 232.82 430.566 229.067 L 430.566 229.067 L 430.566 229.067 Q 422.934 225.315 410.766 220.086 L 410.766 220.086 L 402.994 216.578 L 402.994 216.578 Q 399.539 236.139 397.321 245.636 L 397.321 245.636 L 397.321 245.636 Q 396.745 248.896 391.693 252.838 L 391.693 252.838 L 391.693 252.838 Q 386.642 256.78 381.812 258.074 L 381.812 258.074 L 381.812 258.074 Q 376.403 259.523 375.471 256.046 L 375.471 256.046 L 375.471 256.046 Q 375.212 255.08 375.429 253.573 L 375.429 253.573 L 375.429 253.573 Q 377.394 237.724 380.346 217.056 L 380.346 217.056 L 381.763 206.116 L 381.763 206.116 Q 375.639 202.581 375.639 202.581 L 375.639 202.581 L 375.639 202.581 Q 373.924 201.591 373.458 199.852 L 373.458 199.852 L 373.458 199.852 Q 372.578 196.568 376.026 192.435 L 376.026 192.435 L 376.026 192.435 Q 379.474 188.302 384.431 185.938 L 384.431 185.938 L 384.431 185.938 Q 387.751 161.237 389.705 136.074 L 389.705 136.074 L 389.705 136.074 Q 389.753 133.163 393.363 130.021 L 393.363 130.021 L 393.363 130.021 Q 396.973 126.88 401.454 125.058 L 401.454 125.058 L 401.454 125.058 Q 404.479 123.212 406.798 122.591 L 406.798 122.591 L 406.798 122.591 Q 412.207 121.141 413.873 125.043 L 413.873 125.043 Z  M 503.125 101.128 L 503.125 101.128 Q 507.078 99.655 509.662 100.412 L 509.662 100.412 L 509.662 100.412 Q 512.246 101.169 515.793 104.36 L 515.793 104.36 L 515.793 104.36 Q 518.011 106.457 518.477 108.195 L 518.477 108.195 L 518.477 108.195 Q 519.616 112.446 514.414 114.668 L 514.414 114.668 L 507.86 117.252 L 507.86 117.252 Q 498.756 121.141 498.176 121.296 L 498.176 121.296 L 498.176 121.296 Q 503.174 153.086 507.351 176.399 L 507.351 176.399 L 507.351 176.399 Q 511.527 199.713 516.9 222.084 L 516.9 222.084 L 516.9 222.084 Q 517.432 224.841 515.766 226.737 L 515.766 226.737 L 515.766 226.737 Q 514.099 228.632 510.815 229.512 L 510.815 229.512 L 510.815 229.512 Q 505.02 231.065 498.467 229.405 L 498.467 229.405 L 498.467 229.405 Q 491.914 227.744 491.02 223.636 L 491.02 223.636 L 491.02 223.636 Q 486.112 203.003 482.131 181.19 L 482.131 181.19 L 482.131 181.19 Q 478.15 159.377 473.49 130.395 L 473.49 130.395 L 461.734 135.202 L 461.734 135.202 Q 459.081 136.12 457.502 136.025 L 457.502 136.025 L 457.502 136.025 Q 455.924 135.93 454.106 134.554 L 454.106 134.554 L 454.106 134.554 Q 452.288 133.178 450.366 131.415 L 450.366 131.415 L 450.366 131.415 Q 448.251 129.704 447.682 127.579 L 447.682 127.579 L 447.682 127.579 Q 447.216 125.841 448.206 124.126 L 448.206 124.126 L 448.206 124.126 Q 449.196 122.411 451.797 121.3 L 451.797 121.3 L 451.797 121.3 Q 455.892 119.582 461.287 117.308 L 461.287 117.308 L 470.777 113.316 L 465.299 78.963 L 465.299 78.963 Q 464.429 73.398 471.771 71.431 L 471.771 71.431 L 471.771 71.431 Q 477.566 69.878 483.926 71.591 L 483.926 71.591 L 483.926 71.591 Q 490.286 73.303 490.986 77.463 L 490.986 77.463 L 495.411 104.023 L 495.411 104.023 Q 500.717 102.187 503.125 101.128 L 503.125 101.128 Z " fill="rgb(213,63,140)"/></g></g></svg>